<?xml version="1.0" standalone="no"?>
<!DOCTYPE svg PUBLIC "-//W3C//DTD SVG 20010904//EN"
 "http://www.w3.org/TR/2001/REC-SVG-20010904/DTD/svg10.dtd">
<svg version="1.0" xmlns="http://www.w3.org/2000/svg"
 width="250.000000pt" height="250.000000pt" viewBox="0 0 250.000000 250.000000"
 preserveAspectRatio="xMidYMid meet">
<metadata>
Created by potrace 1.14, written by Peter Selinger 2001-2017
</metadata>
<g transform="translate(0.000000,250.000000) scale(0.100000,-0.100000)"
fill="#000000" stroke="none">
<path d="M0 1250 l0 -1250 1250 0 1250 0 0 1250 0 1250 -1250 0 -1250 0 0
-1250z m510 455 l0 -305 195 0 195 0 0 305 0 305 160 0 160 0 2 -667 3 -668
180 668 179 667 196 0 195 0 213 -793 c117 -435 212 -795 212 -799 0 -5 -71
-8 -158 -8 l-158 0 -48 195 -48 195 -209 0 -209 0 -7 -28 c-3 -15 -25 -101
-48 -192 l-41 -165 -287 -3 -287 -2 0 355 0 355 -195 0 -195 0 0 -355 0 -355
-160 0 -160 0 0 800 0 800 160 0 160 0 0 -305z"/>
<path d="M1703 1377 l-70 -312 74 -3 c40 -2 106 -2 146 0 l73 3 -71 307 c-38
169 -73 309 -76 312 -3 3 -37 -135 -76 -307z"/>
</g>
</svg>
